<?xml version="1.0" encoding="UTF-8" standalone="no"?>
<!-- Created with Inkscape (http://www.inkscape.org/) -->

<svg
   version="1.1"
   id="map"
   width="1416"
   height="1824"
   viewBox="0 0 1416 1824"
   sodipodi:docname="map.svg"
   inkscape:version="1.4.2 (ebf0e940, 2025-05-08)"
   xmlns:inkscape="http://www.inkscape.org/namespaces/inkscape"
   xmlns:sodipodi="http://sodipodi.sourceforge.net/DTD/sodipodi-0.dtd"
   xmlns="http://www.w3.org/2000/svg"
   xmlns:svg="http://www.w3.org/2000/svg">
  <defs
     id="defs1" />
  <sodipodi:namedview
     id="namedview1"
     pagecolor="#ffffff"
     bordercolor="#000000"
     borderopacity="0.25"
     inkscape:showpageshadow="2"
     inkscape:pageopacity="0.0"
     inkscape:pagecheckerboard="0"
     inkscape:deskcolor="#d1d1d1"
     inkscape:zoom="0.53885879"
     inkscape:cx="244.96214"
     inkscape:cy="972.42545"
     inkscape:window-width="2528"
     inkscape:window-height="1567"
     inkscape:window-x="1316"
     inkscape:window-y="25"
     inkscape:window-maximized="0"
     inkscape:current-layer="svg1" />
  <path
     style="display:inline;opacity:1;fill:#857966;fill-opacity:1;stroke:#000000;stroke-width:6;stroke-dasharray:none;stroke-opacity:1"
     d="M 759.28552,150.19537 791.88111,108.01284 888.38962,47.934692 1398.4147,194.29528 1266.5458,449.0996 1108.8892,400.73402 1170.2456,288.88641 Z"
     id="map-wejscie-pn"
     inkscape:label="wejscie-pn"
     sodipodi:nodetypes="cccccccc" />
  <path
     style="display:inline;opacity:1;fill:#523a5c;fill-opacity:1;stroke:#000000;stroke-width:6;stroke-dasharray:none;stroke-opacity:1"
     d="M 1266.4346,449.30784 1022.2872,372.9319 862.50489,688.02261 1098.024,764.71811 Z"
     id="map-rosliny-wrzosowate"
     inkscape:label="rosliny-wrzosowate" />
  <path
     style="display:inline;opacity:1;fill:#868e64;fill-opacity:1;stroke:#000000;stroke-width:6;stroke-dasharray:none;stroke-opacity:1"
     d="m 981.38291,454.42087 77.65419,24.28692 49.972,-78.57296 -87.6806,-27.84206 z"
     id="map-dunno-1"
     inkscape:label="dunno-1"
     sodipodi:nodetypes="ccccc" />
  <path
     style="display:inline;opacity:1;fill:#868e64;fill-opacity:1;stroke:#000000;stroke-width:6;stroke-dasharray:none;stroke-opacity:1"
     d="m 881.03963,651.9118 71.42269,22.84888 47.61518,-87.88027 -73.6597,-24.76625 z"
     id="map-dunno-2"
     sodipodi:nodetypes="ccccc"
     inkscape:label="dunno-2" />
  <path
     style="display:inline;opacity:1;fill:#16406d;fill-opacity:1;stroke:#000000;stroke-width:6;stroke-dasharray:none;stroke-opacity:1"
     d="M 1109.2686,400.18632 1020.4639,372.27948 985.21308,360.64222 857.31616,597.90684 595.68771,506.11145 597.00297,343.92071 759.47274,150.04162 1170.6184,288.89792 Z"
     id="map-laka-rajgrasowa"
     inkscape:label="laka-rajgrasowa"
     sodipodi:nodetypes="ccccccccc" />
  <path
     style="display:inline;opacity:1;fill:#99767e;fill-opacity:1;stroke:#000000;stroke-width:6;stroke-dasharray:none;stroke-opacity:1"
     d="m 862.50488,688.02261 391.15622,127.94171 -67.7899,125.18533 -39.0922,-10.39445 -39.996,68.91973 -40.448,-16.49554 -55.8137,12.20218 -149.81565,-75.24678 -134.67592,21.24083 z"
     id="map-rosliny-srodkowoeuropejskie"
     inkscape:label="rosliny-srodkowoeuropejskie"
     sodipodi:nodetypes="cccccccccc" />
  <path
     style="display:inline;opacity:1;fill:#547d62;fill-opacity:1;stroke:#000000;stroke-width:6;stroke-dasharray:none;stroke-opacity:1"
     d="m 726.0508,941.27756 134.68845,-21.10981 149.66755,75.2018 -172.18882,238.46945 -55.60425,-96.189 -92.35417,6.3913 -7.03042,34.8326 -70.30422,-32.9152 z"
     id="map-brzezina"
     inkscape:label="brzezina"
     sodipodi:nodetypes="ccccccccc" />
  <path
     style="display:inline;opacity:1;fill:#999230;fill-opacity:1;stroke:#000000;stroke-width:6;stroke-dasharray:none;stroke-opacity:1"
     d="m 837.93836,1234.1985 -55.24473,-96.5085 -92.39412,6.3912 -7.07037,34.8326 -70.30421,-32.9951 -184.229,280.7775 194.1355,103.6987 z"
     id="map-leg-topolowy"
     inkscape:label="leg-topolowy"
     sodipodi:nodetypes="cccccccc" />
  <path
     style="display:inline;opacity:1;fill:#917424;fill-opacity:1;stroke:#000000;stroke-width:6;stroke-dasharray:none;stroke-opacity:1"
     d="m 622.81962,1530.4133 651.60408,285.9919 74.139,-75.4172 -202.9236,-119.5172 -48.5738,26.2043 -112.16717,-73.8194 27.80217,-36.7499 -280.95216,-156.7174 z"
     id="map-leg-wierzbowy"
     inkscape:label="leg-wierzbowy"
     sodipodi:nodetypes="ccccccccc" />
  <path
     style="display:inline;opacity:1;fill:#40704f;fill-opacity:1;stroke:#000000;stroke-width:6;stroke-dasharray:none;stroke-opacity:1"
     d="M 791.90694,107.97312 630.89792,55.813677 190.71556,8.3607532 18.529237,177.15758 308.66997,299.17939 301.43905,423.68682 595.69667,506.0162 597.3899,343.60233 759.57887,149.86931 Z"
     id="map-subkontynentalny"
     inkscape:label="subkontynentalny"
     sodipodi:nodetypes="cccccccccc" />
  <path
     style="display:inline;opacity:1;fill:#4f2131;fill-opacity:1;stroke:#000000;stroke-width:6;stroke-dasharray:none;stroke-opacity:1"
     d="M 595.42876,506.03056 593.07197,505.31155 301.10976,423.58289 88.519397,772.70723 49.852079,758.64639 9.2673737,816.80715 8.6282445,856.75272 311.42707,1033.4592 l 25.77175,-32.8831 -177.09695,-185.36678 79.4118,-123.83129 85.64333,29.08039 57.04227,-88.35962 133.25845,48.57382 z"
     id="map-subatlantycki-bor"
     inkscape:label="subatlantycki-bor"
     sodipodi:nodetypes="ccccccccccccccc" />
  <path
     style="display:inline;opacity:1;fill:#8f4c33;fill-opacity:1;stroke:#000000;stroke-width:6;stroke-dasharray:none;stroke-opacity:1"
     d="m 857.31197,597.90539 -261.86323,-91.87483 -80.23638,175.14079 -36.02523,61.49681 74.13899,71.26291 -37.8684,59.91836 21.41083,110.88892 -69.98465,120.31605 94.7509,27.0032 z"
     id="map-ols-porzeczkowy"
     inkscape:label="ols-porzeczkowy"
     sodipodi:nodetypes="cccccccccc" />
  <path
     style="display:inline;opacity:1;fill:#2c693f;fill-opacity:1;stroke:#000000;stroke-width:6;stroke-dasharray:none;stroke-opacity:1"
     d="m 311.53555,1033.4719 43.8203,55.9239 111.59678,15.7217 69.95587,-120.3392 -21.3378,-110.8998 37.81191,-60.09753 -73.99575,-71.2726 35.9603,-61.74374 -133.08613,-48.68881 -57.08407,88.32267 -85.64331,-29.04043 -79.39183,123.73143 176.91896,185.46731 z"
     id="map-buczyna-karpacka"
     inkscape:label="buczyna-karpacka"
     sodipodi:nodetypes="cccccccccccccc" />
  <ellipse
     style="display:inline;opacity:1;fill:#2f2345;fill-opacity:1;stroke:#000000;stroke-width:6;stroke-dasharray:none;stroke-opacity:1"
     id="map-oczko-wschod"
     cx="876.74927"
     cy="878.7829"
     rx="42.465504"
     ry="34.556683"
     inkscape:label="oczko-wschod" />
  <ellipse
     style="display:inline;fill:#2f2345;fill-opacity:1;stroke:#000000;stroke-width:6;stroke-dasharray:none;stroke-opacity:1"
     id="map-oczko-polnoc"
     cx="634.39917"
     cy="645.81836"
     rx="42.465504"
     ry="34.556683"
     inkscape:label="oczko-polnoc" />
  <ellipse
     style="display:inline;fill:#2f2345;fill-opacity:1;stroke:#000000;stroke-width:6;stroke-dasharray:none;stroke-opacity:1"
     id="map-oczko-zachod"
     cx="474.10187"
     cy="935.29901"
     rx="42.465504"
     ry="34.556683"
     inkscape:label="oczko-zachod" />
  <path
     style="display:inline;opacity:1;fill:#946345;fill-opacity:1;stroke:#000000;stroke-width:6;stroke-dasharray:none;stroke-opacity:1"
     d="M 612.67938,1146.2424 561.6675,1132.0911 467.061,1105.1425 355.44499,1089.3836 311.60754,1033.5134 171.28246,1198.5253 4.0673935,1109.9465 v 88.1268 l 424.5341965,228.565 z"
     id="map-podgorski-leg"
     inkscape:label="podgorski-leg"
     sodipodi:nodetypes="cccccccccc" />
  <path
     style="display:inline;opacity:1;fill:#577678;fill-opacity:1;stroke:#000000;stroke-width:6;stroke-dasharray:none;stroke-opacity:1"
     d="m 985.23767,360.68858 36.13933,11.83985 -39.99408,81.85534 -54.96511,107.67389 -45.32169,89.81704 -18.39151,35.94818 -136.49403,253.14882 -113.3256,205.1868 -51.21023,-14.1009 295.47193,-534.15076 z"
     id="map-alejka"
     inkscape:label="alejka"
     sodipodi:nodetypes="ccccccccccc" />
  <circle
     style="display:inline;opacity:1;fill:#781726;fill-opacity:1;stroke:#000000;stroke-width:10;stroke-dasharray:none;stroke-opacity:1"
     id="map-brama-polnocna"
     cx="1131.7986"
     cy="116.78851"
     r="31.453564"
     inkscape:label="brama-polnocna" />
  <circle
     style="display:inline;fill:#781726;fill-opacity:1;stroke:#000000;stroke-width:10;stroke-dasharray:none;stroke-opacity:1"
     id="map-brama-poludniowa"
     cx="430.69571"
     cy="1423.6306"
     r="31.453564"
     inkscape:label="brama-poludniowa"
     inkscape:transform-center-x="-278.36607"
     inkscape:transform-center-y="-96.500236" />
</svg>
